<?xml version="1.0" encoding="iso-8859-1"?>
<!-- Generator: Adobe Illustrator 19.0.0, SVG Export Plug-In . SVG Version: 6.00 Build 0)  -->
<svg version="1.1" id="Capa_1" xmlns="http://www.w3.org/2000/svg" xmlns:xlink="http://www.w3.org/1999/xlink" x="0px" y="0px"
	 viewBox="0 0 480.042 480.042" style="enable-background:new 0 0 480.042 480.042;" xml:space="preserve">
<path style="fill:#B28757;" d="M200.008,16.021l-160,160v68h400v-68L200.008,16.021z"/>
<path style="fill:#F6F6E7;" d="M440.008,176.021h-400l160-160L440.008,176.021z"/>
<path style="fill:#B28757;" d="M40.008,392.021h400v72h-400C40.008,464.021,40.008,392.021,40.008,392.021z"/>
<path style="fill:#9BB93C;" d="M408.496,361.301c5.125-0.863,10.315-1.291,15.512-1.28c26.512,0,48,10.744,48,24s-21.488,24-48,24
	c-14.117,0.585-28.076-3.164-40-10.744c-11.924,7.58-25.883,11.329-40,10.744c-12.492,0.318-24.866-2.487-36-8.16
	c-11.134,5.673-23.508,8.478-36,8.16c-8.11,0.062-16.189-1.015-24-3.2c-4.177-1.175-8.203-2.828-12-4.928
	c-11.137,5.662-23.511,8.455-36,8.128c-10.976,0.179-21.871-1.913-32-6.144c-1.408-0.629-2.741-1.301-4-2.016
	c-11.134,5.673-23.508,8.478-36,8.16c-12.492,0.318-24.866-2.487-36-8.16c-11.134,5.673-23.508,8.478-36,8.16
	c-26.512,0-48-10.744-48-24s21.488-24,48-24c5.198-0.008,10.387,0.423,15.512,1.288l0.488-41.288h337.496L408.496,361.301z"/>
<g>
	<path style="fill:#492E1B;" d="M74.357,210.361l15.998-15.998l11.314,11.314l-15.998,15.998L74.357,210.361z"/>
	<path style="fill:#492E1B;" d="M160.008,200.021h16v16h-16V200.021z"/>
	<path style="fill:#492E1B;" d="M258.353,210.365l15.998-15.998l11.314,11.314l-15.998,15.998L258.353,210.365z"/>
	<path style="fill:#492E1B;" d="M346.355,205.679l11.314-11.314l15.998,15.998l-11.314,11.314L346.355,205.679z"/>
	<path style="fill:#492E1B;" d="M138.356,133.678l11.314-11.314l15.998,15.998l-11.314,11.314L138.356,133.678z"/>
	<path style="fill:#492E1B;" d="M216.008,136.021h16v16h-16V136.021z"/>
	<path style="fill:#492E1B;" d="M266.354,138.356l15.998-15.998l11.314,11.314l-15.998,15.998L266.354,138.356z"/>
	<path style="fill:#492E1B;" d="M162.355,93.679l11.314-11.314l15.998,15.998l-11.314,11.314L162.355,93.679z"/>
	<path style="fill:#492E1B;" d="M220.431,96.867l16-8l7.155,14.311l-16,8L220.431,96.867z"/>
	<path style="fill:#492E1B;" d="M192.008,56.021h16v16h-16V56.021z"/>
	<path style="fill:#492E1B;" d="M320.008,136.021h16v16h-16V136.021z"/>
	<path style="fill:#492E1B;" d="M72.008,424.021h16v16h-16V424.021z"/>
	<path style="fill:#492E1B;" d="M154.351,429.677l11.314-11.314l15.998,15.998l-11.314,11.314L154.351,429.677z"/>
	<path style="fill:#492E1B;" d="M224.008,424.021h16v16h-16V424.021z"/>
	<path style="fill:#492E1B;" d="M290.358,434.362l15.998-15.998l11.314,11.314l-15.998,15.998L290.358,434.362z"/>
	<path style="fill:#492E1B;" d="M368.008,424.021h16v16h-16V424.021z"/>
</g>
<path style="fill:#EF5822;" d="M432.008,292.021c0-15.464-12.536-28-28-28h-328c-15.464,0-28,12.536-28,28s12.536,28,28,28h-28
	c0,26.51,21.49,48,48,48s48-21.49,48-48c0,26.51,21.49,48,48,48s48-21.49,48-48c0,26.51,21.49,48,48,48s48-21.49,48-48
	c0,26.51,21.49,48,48,48s48-21.49,48-48h-28C419.472,320.021,432.008,307.485,432.008,292.021z"/>
<path style="fill:#F5C29A;" d="M76.008,264.021h328c15.464,0,28,12.536,28,28l0,0c0,15.464-12.536,28-28,28h-328
	c-15.464,0-28-12.536-28-28l0,0C48.008,276.557,60.544,264.021,76.008,264.021z"/>
<path style="fill:#FFBF41;" d="M8.008,240.021l232,48l232-48H8.008z"/>
<path d="M429.784,352.165c6.65-9.4,10.221-20.63,10.224-32.144c-0.03-3.733-2.675-6.933-6.336-7.664
	c11.241-16.308,7.133-38.642-9.175-49.883c-1.831-1.262-3.776-2.351-5.809-3.253l54.944-11.36c4.33-0.879,7.127-5.102,6.248-9.432
	c-0.759-3.741-4.056-6.424-7.872-6.408h-24v-56v-0.096c-0.011-0.969-0.204-1.927-0.568-2.824c-0.104-0.264-0.272-0.48-0.4-0.736
	c-0.299-0.59-0.67-1.141-1.104-1.64c-0.251-0.257-0.518-0.498-0.8-0.72c-0.216-0.228-0.445-0.441-0.688-0.64l-240-160
	c-3.173-2.116-7.399-1.697-10.096,1l-160,160c-0.635,0.665-1.151,1.433-1.528,2.272c-0.101,0.246-0.189,0.497-0.264,0.752
	c-0.239,0.681-0.384,1.392-0.432,2.112c0,0.176-0.096,0.32-0.096,0.496v56H8.008c-4.418-0.004-8.004,3.574-8.008,7.992
	c-0.004,3.808,2.677,7.09,6.408,7.848l54.92,11.384c-18.103,8.038-26.263,29.229-18.225,47.332c0.899,2.025,1.984,3.963,3.241,5.788
	c-3.667,0.733-6.314,3.941-6.336,7.68c-0.001,11.52,3.571,22.756,10.224,32.16c-29.008,1.528-50.224,14.696-50.224,31.84
	c0,13.272,12.8,24.136,32,29.088v50.912c0,4.418,3.582,8,8,8h400c4.418,0,8-3.582,8-8v-50.928c19.2-4.952,32-15.816,32-29.088
	C480.008,366.877,458.792,353.709,429.784,352.165L429.784,352.165z M201.024,26.301l212.584,141.72H59.32L201.024,26.301z
	 M48.008,232.021v-48h384v48H48.008z M393.856,248.021l-153.848,31.816L86.16,248.021H393.856z M76.008,272.021h47.2l115.2,23.84
	c1.072,0.213,2.176,0.213,3.248,0l115.152-23.84h47.2c11.046,0,20,8.954,20,20s-8.954,20-20,20h-328c-11.046,0-20-8.954-20-20
	S64.962,272.021,76.008,272.021z M423.208,328.021c-4.396,21.65-25.51,35.636-47.16,31.24c-15.741-3.196-28.044-15.499-31.24-31.24
	H423.208z M327.208,328.021c-4.396,21.65-25.51,35.636-47.16,31.24c-15.741-3.196-28.044-15.499-31.24-31.24H327.208z
	 M231.208,328.021c-4.396,21.65-25.51,35.636-47.16,31.24c-15.741-3.196-28.044-15.499-31.24-31.24H231.208z M135.208,328.021
	c-4.396,21.65-25.51,35.636-47.16,31.24c-15.741-3.196-28.044-15.499-31.24-31.24H135.208z M432.008,456.021h-384v-40.352
	c2.608,0.2,5.264,0.336,8,0.336c12.377,0.207,24.654-2.249,36-7.2c11.344,4.957,23.622,7.418,36,7.216
	c12.377,0.207,24.654-2.249,36-7.2l0.72,0.328c11.164,4.686,23.173,7.025,35.28,6.872c12.377,0.204,24.653-2.252,36-7.2
	c3.16,1.453,6.425,2.664,9.768,3.624c8.536,2.404,17.364,3.608,26.232,3.576c12.377,0.207,24.654-2.249,36-7.2
	c11.346,4.951,23.623,7.407,36,7.2c13.892,0.297,27.639-2.87,40-9.216c12.361,6.346,26.108,9.513,40,9.216
	c2.736,0,5.392-0.136,8-0.336V456.021z M424.008,400.021c-12.381,0.522-24.636-2.659-35.2-9.136c-2.844-2.133-6.756-2.133-9.6,0
	c-10.564,6.477-22.819,9.658-35.2,9.136c-11.106,0.307-22.116-2.139-32.048-7.12c-2.451-1.392-5.453-1.392-7.904,0
	c-9.932,4.981-20.942,7.427-32.048,7.12c-7.355,0.042-14.681-0.935-21.768-2.904c-3.561-1.014-6.995-2.434-10.232-4.232
	c-2.456-1.384-5.456-1.384-7.912,0c-9.942,4.993-20.967,7.444-32.088,7.136c-9.847,0.172-19.625-1.68-28.728-5.44
	c-1.168-0.533-2.277-1.096-3.328-1.688c-2.451-1.38-5.445-1.38-7.896,0c-9.931,4.983-20.941,7.432-32.048,7.128
	c-11.106,0.307-22.116-2.139-32.048-7.12c-2.451-1.392-5.453-1.392-7.904,0c-9.932,4.981-20.942,7.427-32.048,7.12
	c-24.416,0-40-9.48-40-16s15.584-16,40-16c4.35,0.008,8.694,0.35,12.992,1.024c26.393,14.594,59.606,5.586,75.008-20.344
	c15.758,26.51,50.023,35.226,76.533,19.467c8.012-4.763,14.705-11.455,19.467-19.467c15.758,26.51,50.023,35.226,76.533,19.467
	c8.012-4.763,14.705-11.455,19.467-19.467c15.411,25.93,48.633,34.928,75.024,20.32c4.293-0.665,8.631-0.999,12.976-1
	c24.416,0,40,9.48,40,16S448.424,400.021,424.008,400.021z"/>
<path d="M74.354,210.35l15.998-15.998l11.314,11.314l-15.998,15.998L74.354,210.35z"/>
<path d="M160.008,200.005h16v16h-16V200.005z"/>
<path d="M258.35,210.345l15.998-15.998l11.314,11.314l-15.998,15.998L258.35,210.345z"/>
<path d="M346.352,205.66l11.314-11.314l15.998,15.998l-11.314,11.314L346.352,205.66z"/>
<path d="M138.353,133.667l11.314-11.314l15.998,15.998l-11.314,11.314L138.353,133.667z"/>
<path d="M216.008,136.005h16v16h-16V136.005z"/>
<path d="M266.351,138.345l15.998-15.998l11.314,11.314l-15.998,15.998L266.351,138.345z"/>
<path d="M162.351,93.66l11.314-11.314l15.998,15.998l-11.314,11.314L162.351,93.66z"/>
<path d="M220.432,96.852l16-8l7.155,14.311l-16,8L220.432,96.852z"/>
<path d="M192.008,56.005h16v16h-16V56.005z"/>
<path d="M320.008,136.005h16v16h-16V136.005z"/>
<path d="M72.008,424.005h16v16h-16V424.005z"/>
<path d="M154.355,429.666l11.314-11.314l15.998,15.998l-11.314,11.314L154.355,429.666z"/>
<path d="M224.008,424.005h16v16h-16V424.005z"/>
<path d="M290.354,434.351l15.998-15.998l11.314,11.314l-15.998,15.998L290.354,434.351z"/>
<path d="M368.008,424.005h16v16h-16V424.005z"/>
<g>
</g>
<g>
</g>
<g>
</g>
<g>
</g>
<g>
</g>
<g>
</g>
<g>
</g>
<g>
</g>
<g>
</g>
<g>
</g>
<g>
</g>
<g>
</g>
<g>
</g>
<g>
</g>
<g>
</g>
</svg>
